# xmcd
#
# Track frame offsets: 
#        150
#        11804
#        23046
#        33679
#        44568
#        57458
#        71474
#        83926
#        96304
#        109583
#        121421
#
# Disc length: 1731 seconds
#
# Revision: 0
# Processed by: cddbd v1.5.2PL0 Copyright (c) Steve Scherf et al.
# Submitted via: ExactAudioCopy v1.3
#
DISCID=9606c10b
DTITLE=urban pioneers - addicted to the road
DYEAR=2014
DGENRE=Bluegrass
TTITLE0=apparition in the fog
TTITLE1=autumn time
TTITLE2=ain't gonna work
TTITLE3=izzy's song
TTITLE4=broken down
TTITLE5=my hometown
TTITLE6=please give me a highway
TTITLE7=liz's reel
TTITLE8=muddy roots
TTITLE9=gotta go
TTITLE10=lost my weed waltz
EXTD=
EXTT0=
EXTT1=
EXTT2=
EXTT3=
EXTT4=
EXTT5=
EXTT6=
EXTT7=
EXTT8=
EXTT9=
EXTT10=
PLAYORDER=
